HIERARCHY
ROOT pelvis
{
	OFFSET 0.003123 -0.351407 0.012037
	CHANNELS 6 Xposition Yposition Zposition Zrotation Yrotation Xrotation 
	JOINT left_hip
	{
		OFFSET 0.058189 -0.092763 -0.026001
		CHANNELS 3 Zrotation Yrotation Xrotation
		JOINT left_knee
		{
			OFFSET 0.054695 -0.378753 -0.009396
			CHANNELS 3 Zrotation Yrotation Xrotation
			JOINT left_ankle
			{
				OFFSET -0.043453 -0.403059 -0.031876
				CHANNELS 3 Zrotation Yrotation Xrotation
				JOINT left_foot
				{
					OFFSET 0.047257 -0.057997 0.118216
					CHANNELS 3 Zrotation Yrotation Xrotation
					End Site
					{
						OFFSET 0.000000 0.000000 0.000000
					}
				}
			}
		}
	}
	JOINT right_hip
	{
		OFFSET -0.063267 -0.103908 -0.021250
		CHANNELS 3 Zrotation Yrotation Xrotation
		JOINT right_knee
		{
			OFFSET -0.044210 -0.362380 -0.016824
			CHANNELS 3 Zrotation Yrotation Xrotation
			JOINT right_ankle
			{
				OFFSET 0.015417 -0.410728 -0.020192
				CHANNELS 3 Zrotation Yrotation Xrotation
				JOINT right_foot
				{
					OFFSET -0.038812 -0.058328 0.119049
					CHANNELS 3 Zrotation Yrotation Xrotation
					End Site
					{
						OFFSET 0.000000 0.000000 0.000000
					}
				}
			}
		}
	}
	JOINT spine_1
	{
		OFFSET -0.002763 0.109891 -0.027618
		CHANNELS 3 Zrotation Yrotation Xrotation
		JOINT spine_2
		{
			OFFSET 0.009448 0.131853 -0.005940
			CHANNELS 3 Zrotation Yrotation Xrotation
			JOINT spine_3
			{
				OFFSET -0.011330 0.052235 0.028447
				CHANNELS 3 Zrotation Yrotation Xrotation
				JOINT neck
				{
					OFFSET -0.012164 0.165167 -0.031615
					CHANNELS 3 Zrotation Yrotation Xrotation
					JOINT head
					{
						OFFSET 0.024783 0.160452 0.020737
						CHANNELS 3 Zrotation Yrotation Xrotation
						End Site
						{
							OFFSET 0.000000 0.000000 0.000000
						}
					}
				}
				JOINT left_collar
				{
					OFFSET 0.046364 0.084944 -0.007220
					CHANNELS 3 Zrotation Yrotation Xrotation
					JOINT left_shoulder
					{
						OFFSET 0.119239 0.057728 -0.015461
						CHANNELS 3 Zrotation Yrotation Xrotation
						JOINT left_elbow
						{
							OFFSET 0.254123 -0.072151 -0.042459
							CHANNELS 3 Zrotation Yrotation Xrotation
							JOINT left_wrist
							{
								OFFSET 0.251987 0.023221 -0.002472
								CHANNELS 3 Zrotation Yrotation Xrotation
								JOINT left_index_1
								{
									OFFSET 0.101902 -0.008688 0.019351
									CHANNELS 3 Zrotation Yrotation Xrotation
									JOINT left_index_2
									{
										OFFSET 0.030149 -0.011154 0.001151
										CHANNELS 3 Zrotation Yrotation Xrotation
										JOINT left_index_3
										{
											OFFSET 0.006504 -0.021577 -0.002433
											CHANNELS 3 Zrotation Yrotation Xrotation
											End Site
											{
												OFFSET 0.000000 0.000000 0.000000
											}
										}
									}
								}
								JOINT left_middle_1
								{
									OFFSET 0.109398 -0.006328 -0.003981
									CHANNELS 3 Zrotation Yrotation Xrotation
									JOINT left_middle_2
									{
										OFFSET 0.026472 -0.015218 -0.004641
										CHANNELS 3 Zrotation Yrotation Xrotation
										JOINT left_middle_3
										{
											OFFSET 0.005022 -0.023347 -0.001911
											CHANNELS 3 Zrotation Yrotation Xrotation
											End Site
											{
												OFFSET 0.000000 0.000000 0.000000
											}
										}
									}
								}
								JOINT left_pinky_1
								{
									OFFSET 0.084047 -0.014539 -0.043750
									CHANNELS 3 Zrotation Yrotation Xrotation
									JOINT left_pinky_2
									{
										OFFSET 0.012124 -0.014448 -0.005375
										CHANNELS 3 Zrotation Yrotation Xrotation
										JOINT left_pinky_3
										{
											OFFSET 0.003798 -0.018853 0.000167
											CHANNELS 3 Zrotation Yrotation Xrotation
											End Site
											{
												OFFSET 0.000000 0.000000 0.000000
											}
										}
									}
								}
								JOINT left_ring_1
								{
									OFFSET 0.097444 -0.009268 -0.027345
									CHANNELS 3 Zrotation Yrotation Xrotation
									JOINT left_ring_2
									{
										OFFSET 0.023561 -0.016057 -0.001895
										CHANNELS 3 Zrotation Yrotation Xrotation
										JOINT left_ring_3
										{
											OFFSET 0.004257 -0.023548 0.000814
											CHANNELS 3 Zrotation Yrotation Xrotation
											End Site
											{
												OFFSET 0.000000 0.000000 0.000000
											}
										}
									}
								}
								JOINT left_thumb_1
								{
									OFFSET 0.040636 -0.017977 0.025611
									CHANNELS 3 Zrotation Yrotation Xrotation
									JOINT left_thumb_2
									{
										OFFSET 0.021637 -0.017639 0.011623
										CHANNELS 3 Zrotation Yrotation Xrotation
										JOINT left_thumb_3
										{
											OFFSET 0.024002 -0.008356 0.006548
											CHANNELS 3 Zrotation Yrotation Xrotation
											End Site
											{
												OFFSET 0.000000 0.000000 0.000000
											}
										}
									}
								}
							}
						}
					}
				}
				JOINT right_collar
				{
					OFFSET -0.047695 0.084339 -0.013400
					CHANNELS 3 Zrotation Yrotation Xrotation
					JOINT right_shoulder
					{
						OFFSET -0.102578 0.053524 -0.012669
						CHANNELS 3 Zrotation Yrotation Xrotation
						JOINT right_elbow
						{
							OFFSET -0.271150 -0.036492 -0.026467
							CHANNELS 3 Zrotation Yrotation Xrotation
							JOINT right_wrist
							{
								OFFSET -0.249267 -0.004533 -0.015325
								CHANNELS 3 Zrotation Yrotation Xrotation
								JOINT right_index_1
								{
									OFFSET -0.099881 -0.011783 0.019600
									CHANNELS 3 Zrotation Yrotation Xrotation
									JOINT right_index_2
									{
										OFFSET -0.030148 -0.011154 0.001151
										CHANNELS 3 Zrotation Yrotation Xrotation
										JOINT right_index_3
										{
											OFFSET -0.006505 -0.021577 -0.002432
											CHANNELS 3 Zrotation Yrotation Xrotation
											End Site
											{
												OFFSET 0.000000 0.000000 0.000000
											}
										}
									}
								}
								JOINT right_middle_1
								{
									OFFSET -0.107376 -0.009422 -0.003734
									CHANNELS 3 Zrotation Yrotation Xrotation
									JOINT right_middle_2
									{
										OFFSET -0.026472 -0.015218 -0.004641
										CHANNELS 3 Zrotation Yrotation Xrotation
										JOINT right_middle_3
										{
											OFFSET -0.005022 -0.023347 -0.001911
											CHANNELS 3 Zrotation Yrotation Xrotation
											End Site
											{
												OFFSET 0.000000 0.000000 0.000000
											}
										}
									}
								}
								JOINT right_pinky_1
								{
									OFFSET -0.082027 -0.017634 -0.043503
									CHANNELS 3 Zrotation Yrotation Xrotation
									JOINT right_pinky_2
									{
										OFFSET -0.012123 -0.014448 -0.005374
										CHANNELS 3 Zrotation Yrotation Xrotation
										JOINT right_pinky_3
										{
											OFFSET -0.003798 -0.018852 0.000167
											CHANNELS 3 Zrotation Yrotation Xrotation
											End Site
											{
												OFFSET 0.000000 0.000000 0.000000
											}
										}
									}
								}
								JOINT right_ring_1
								{
									OFFSET -0.095423 -0.012362 -0.027099
									CHANNELS 3 Zrotation Yrotation Xrotation
									JOINT right_ring_2
									{
										OFFSET -0.023561 -0.016057 -0.001895
										CHANNELS 3 Zrotation Yrotation Xrotation
										JOINT right_ring_3
										{
											OFFSET -0.004257 -0.023548 0.000816
											CHANNELS 3 Zrotation Yrotation Xrotation
											End Site
											{
												OFFSET 0.000000 0.000000 0.000000
											}
										}
									}
								}
								JOINT right_thumb_1
								{
									OFFSET -0.038613 -0.021074 0.025861
									CHANNELS 3 Zrotation Yrotation Xrotation
									JOINT right_thumb_2
									{
										OFFSET -0.021636 -0.017639 0.011623
										CHANNELS 3 Zrotation Yrotation Xrotation
										JOINT right_thumb_3
										{
											OFFSET -0.024004 -0.008353 0.006547
											CHANNELS 3 Zrotation Yrotation Xrotation
											End Site
											{
												OFFSET 0.000000 0.000000 0.000000
											}
										}
									}
								}
							}
						}
					}
				}
			}
		}
	}
}
MOTION
Frames: 4
Frame Time: 0.050000
0.000027 0.854391 0.000587 2.425048 -10.151249 -7.396829 -2.219380 -3.250625 -22.832410 -8.470652 0.795790 27.474862 9.129222 14.520812 -9.128249 0.000000 0.000000 0.000000 -1.100864 -1.629163 20.245089 3.964137 0.201248 -16.428881 -96.441089 -11.859784 137.872855 0.000000 0.000000 0.000000 -5.227505 -0.664374 18.735489 -7.578212 -0.541333 -14.725217 10.323935 4.844925 21.642233 1.761205 0.639729 -5.938973 0.000000 0.000000 0.000000 1.575034 -10.651965 5.176878 -29.659676 -43.381060 -6.321388 -5.291401 -38.295584 5.760473 24.248755 -5.933938 -16.257681 1.820805 1.423419 0.269718 12.048553 -1.189713 -7.480047 0.000000 0.000000 0.000000 -5.620601 -8.922542 -4.405438 11.616631 -0.325785 -5.187490 0.000000 0.000000 0.000000 16.369166 -12.785043 -14.413021 11.532966 0.469144 2.078081 0.000000 0.000000 0.000000 -0.924839 -9.172053 -5.572894 16.693621 1.016012 -5.188461 0.000000 0.000000 0.000000 20.286344 10.075708 -3.996611 -15.098769 -3.182470 2.879710 0.000000 0.000000 0.000000 -16.651900 25.144985 10.296369 40.801521 44.601393 5.585603 -35.165127 43.968845 -13.547993 -15.916058 -12.785077 -10.159786 1.122937 -3.851864 1.041676 -9.772632 1.159083 -6.586455 0.000000 0.000000 0.000000 9.380978 5.793264 -3.647020 -9.480644 0.497762 -5.255868 0.000000 0.000000 0.000000 -12.446170 11.561933 -13.832531 -9.849362 -0.514724 2.191807 0.000000 0.000000 0.000000 4.237956 7.098959 -4.436096 -13.440297 -0.553038 -5.850312 0.000000 0.000000 0.000000 -17.721228 -8.009327 -4.131100 13.828782 0.464725 3.290847 0.000000 0.000000 0.000000 
-0.016462 0.894523 0.163593 2.466304 -6.128874 -7.625762 -6.470924 -1.061369 -5.439221 -2.800637 -1.086596 18.897247 8.020447 8.378664 -15.060809 0.000000 0.000000 0.000000 -2.008246 0.459348 -3.531511 2.344974 -0.093246 -20.356935 -177.485509 -20.064196 125.656761 0.000000 0.000000 0.000000 -3.592689 -0.923406 20.427747 -5.706913 -1.492571 -16.335173 8.137598 0.791632 21.216624 1.125915 0.624667 -5.437770 0.000000 0.000000 0.000000 2.276942 -14.883203 7.123404 -25.142387 -45.222518 -7.273095 -4.435169 -33.129897 4.646967 27.273293 -7.113680 -20.132079 3.457089 0.854029 0.044593 11.151415 -1.284336 -9.211835 0.000000 0.000000 0.000000 -4.961555 -10.259224 -4.765709 11.197962 -0.285915 -6.775550 0.000000 0.000000 0.000000 15.865030 -13.573425 -16.085766 13.632528 0.678898 3.706145 0.000000 0.000000 0.000000 -1.102049 -10.101749 -6.006149 18.134866 1.172057 -6.203022 0.000000 0.000000 0.000000 21.893928 10.164262 -5.059180 -15.958820 -3.287842 3.075815 0.000000 0.000000 0.000000 -16.982849 23.497491 9.794259 41.653726 45.126408 5.499510 -31.442831 42.769595 -11.792974 -16.250450 -12.383574 -11.606728 0.330681 -3.618652 0.954744 -8.881036 1.044831 -6.120264 0.000000 0.000000 0.000000 9.605325 5.677927 -3.573417 -10.501547 0.454941 -5.911123 0.000000 0.000000 0.000000 -12.285666 11.675899 -14.190346 -11.496708 -0.604493 2.895486 0.000000 0.000000 0.000000 4.526103 7.612843 -4.702397 -15.147814 -0.843445 -5.097762 0.000000 0.000000 0.000000 -18.643857 -8.728420 -4.085929 14.611661 0.981034 3.339656 0.000000 0.000000 0.000000 
-0.040960 0.911224 0.321155 0.187649 -1.543413 -9.385312 -2.379796 2.612181 15.245777 0.016891 -0.551131 5.085181 4.813882 -1.705361 -14.650701 0.000000 0.000000 0.000000 -4.154779 1.782983 -18.670574 2.538649 -0.209100 -6.676369 -70.222961 -13.350717 152.756569 0.000000 0.000000 0.000000 -1.043115 -1.389460 21.910697 -3.730916 -2.001383 -16.277335 6.341193 -4.151150 21.264381 1.946176 0.335150 -4.479242 0.000000 0.000000 0.000000 4.007294 -17.989001 8.325123 -20.871333 -49.031647 -8.424856 -5.856020 -30.074532 4.555002 29.475099 -6.647771 -23.752048 4.610431 0.396373 -0.102375 10.593067 -1.409699 -10.566089 0.000000 0.000000 0.000000 -3.693791 -11.150663 -4.968574 10.945453 -0.303716 -8.073100 0.000000 0.000000 0.000000 15.510241 -13.873820 -16.959770 15.227692 0.635043 3.694016 0.000000 0.000000 0.000000 -1.673657 -11.254997 -6.496208 20.309603 1.464191 -6.128247 0.000000 0.000000 0.000000 23.788766 10.738231 -5.663726 -17.758519 -4.407951 3.345806 0.000000 0.000000 0.000000 -15.848072 21.852824 9.523481 41.806778 47.663537 5.561875 -26.417429 39.928779 -9.219403 -15.764824 -11.301781 -15.215356 -0.250055 -3.990063 1.002125 -8.061691 1.257154 -8.432005 0.000000 0.000000 0.000000 8.884215 7.249078 -4.116347 -6.426437 0.539433 -5.943650 0.000000 0.000000 0.000000 -10.945092 11.945106 -15.203138 -11.922165 -0.578705 2.763999 0.000000 0.000000 0.000000 5.176388 7.667128 -4.651988 -13.934908 -0.451887 -7.519864 0.000000 0.000000 0.000000 -19.089218 -7.865756 -5.308271 14.080066 -0.732721 3.699278 0.000000 0.000000 0.000000 
-0.069227 0.877439 0.479706 0.062544 2.107281 -10.793378 3.364931 3.396040 31.521299 -1.182080 0.256011 -1.711618 3.793097 -8.415334 -16.852557 0.000000 0.000000 0.000000 -6.388798 1.498724 -22.248426 4.528263 -0.261487 1.920756 0.750543 -13.807334 36.266394 0.000000 0.000000 0.000000 -0.976886 -1.591649 24.177720 -2.481151 -2.193664 -15.791032 6.030588 -7.793261 20.757929 2.637879 0.218166 -4.436152 0.000000 0.000000 0.000000 6.761833 -19.918589 8.717578 -16.427571 -51.551544 -9.848580 -6.285505 -24.821952 3.775108 32.219993 -7.633977 -26.326165 5.373926 -0.140912 -0.263512 10.785184 -1.498376 -11.681201 0.000000 0.000000 0.000000 -3.936887 -12.171383 -5.149137 11.422135 -0.298374 -9.633923 0.000000 0.000000 0.000000 12.946479 -14.817584 -18.266145 14.564691 0.478144 2.533300 0.000000 0.000000 0.000000 -0.515143 -11.450908 -6.625278 18.555152 1.172283 -7.874250 0.000000 0.000000 0.000000 24.674022 10.437212 -6.456037 -17.318940 -3.724584 3.397280 0.000000 0.000000 0.000000 -16.893581 21.249121 9.331105 41.806340 49.400893 5.555763 -22.358216 36.243852 -7.002136 -16.578257 -10.575657 -16.069065 0.109980 -3.065255 0.748669 -9.369757 1.119367 -8.176530 0.000000 0.000000 0.000000 10.332628 7.898200 -4.369114 -11.933373 0.162134 -5.065652 0.000000 0.000000 0.000000 -10.801958 12.041230 -15.322908 -11.127444 -0.413557 1.728445 0.000000 0.000000 0.000000 5.205961 8.855601 -5.322828 -15.544659 -0.874623 -5.719274 0.000000 0.000000 0.000000 -19.192160 -7.679874 -5.510456 15.030778 -0.102408 3.756495 0.000000 0.000000 0.000000 
